<?xml version="1.0" encoding="UTF-8"?>
<svg xmlns="http://www.w3.org/2000/svg" id="Layer_1" viewBox="0 0 461.05 75.63">
  <defs>
    <style>.cls-1{font-family:Avenir-Book, Avenir;font-size:6px;}.cls-1,.cls-2,.cls-3{fill:#231f20;}.cls-4{fill:#808285;}.cls-3{fill-rule:evenodd;}</style>
  </defs>
  <path class="cls-3" d="m0,18.09C10.69,11.92,20.64,6.17,31.33,0v32.35c-6.46,3.73-12.17,7.03-18.63,10.76v-10.24l10.47-6.04v-11.82c-4.75,2.74-9.5,5.48-14.25,8.23v28.07c8.1,4.68,16.2,9.36,24.3,14.03,8.1-4.68,16.2-9.35,24.3-14.03v-6.02c-7.72-4.46-14.69-8.48-22.41-12.94V0c10.69,6.17,20.63,11.92,31.33,18.09,0,5.93,0,11.86,0,17.79l-8.92-5.15v-7.49c-4.75-2.74-9.5-5.48-14.25-8.23v11.82c7.73,4.46,15.44,8.97,23.17,13.43,0,5.4,0,10.79,0,16.19-11.07,6.39-22.15,12.79-33.22,19.18-11.07-6.39-22.15-12.79-33.22-19.18V18.09"></path>
  <path class="cls-2" d="m93.96,31.56h-5.37v14.47h-1.93v-14.47h-5.37v-1.79h12.68v1.79Z"></path>
  <path class="cls-2" d="m100.83,29.77h1.93v6.89h8.68v-6.89h1.93v16.26h-1.93v-7.58h-8.68v7.58h-1.93v-16.26Z"></path>
  <path class="cls-2" d="m122.01,29.77h1.93v16.26h-1.93v-16.26Z"></path>
  <path class="cls-2" d="m132.55,29.77h4.16c.78,0,1.56.05,2.33.14.77.09,1.47.29,2.08.6.61.31,1.11.75,1.49,1.34.38.59.57,1.39.57,2.4,0,1.19-.36,2.16-1.08,2.89-.72.74-1.72,1.2-2.99,1.4l4.62,7.49h-2.37l-4.41-7.3h-2.48v7.3h-1.93v-16.26Zm1.93,7.17h1.72c.54,0,1.09-.02,1.67-.05.57-.03,1.1-.13,1.58-.3.48-.17.88-.43,1.19-.79.31-.36.47-.88.47-1.55,0-.58-.11-1.05-.34-1.4-.23-.35-.53-.62-.91-.81s-.8-.32-1.26-.38c-.47-.06-.94-.09-1.41-.09h-2.71v5.38Z"></path>
  <path class="cls-2" d="m150.88,29.77h6.25c.54,0,1.1.06,1.7.18.6.12,1.19.32,1.78.59.59.27,1.16.62,1.7,1.04s1.02.95,1.44,1.55c.41.61.74,1.3.99,2.09.25.79.37,1.68.37,2.68s-.12,1.89-.37,2.67c-.24.79-.57,1.49-.99,2.09-.41.6-.89,1.12-1.44,1.55s-1.11.78-1.7,1.04c-.59.27-1.18.46-1.78.59-.6.12-1.16.18-1.7.18h-6.25v-16.26Zm1.93,14.47h3.68c.93,0,1.8-.12,2.6-.37.79-.24,1.48-.62,2.07-1.14.58-.51,1.04-1.17,1.38-1.96.34-.8.5-1.75.5-2.87s-.17-2.08-.5-2.87c-.34-.8-.8-1.45-1.38-1.96s-1.27-.89-2.07-1.14c-.8-.25-1.66-.37-2.6-.37h-3.68v12.68Z"></path>
  <path class="cls-2" d="m183.74,29.77h4.82c.75,0,1.47.07,2.15.22.68.15,1.29.39,1.81.74s.95.8,1.26,1.38c.31.57.47,1.28.47,2.12,0,.89-.17,1.62-.5,2.2-.34.58-.77,1.04-1.3,1.38-.53.34-1.11.57-1.73.71-.63.14-1.22.21-1.79.21h-3.26v7.3h-1.93v-16.26Zm1.93,7.17h3.26c.96,0,1.75-.22,2.35-.66.61-.44.91-1.11.91-2.03s-.3-1.6-.91-2.03c-.6-.44-1.39-.66-2.35-.66h-3.26v5.38Z"></path>
  <path class="cls-2" d="m205.54,29.77h1.81l6.91,16.26h-2.25l-1.65-4h-8.13l-1.68,4h-2.18l7.17-16.26Zm.87,2.48h-.05l-3.38,7.99h6.64l-3.21-7.99Z"></path>
  <path class="cls-2" d="m221.02,29.77h4.16c.78,0,1.56.05,2.33.14.77.09,1.47.29,2.08.6.61.31,1.11.75,1.49,1.34.38.59.57,1.39.57,2.4,0,1.19-.36,2.16-1.08,2.89-.72.74-1.71,1.2-2.99,1.4l4.62,7.49h-2.37l-4.41-7.3h-2.48v7.3h-1.93v-16.26Zm1.93,7.17h1.72c.54,0,1.09-.02,1.67-.05.57-.03,1.1-.13,1.58-.3.48-.17.88-.43,1.19-.79.31-.36.47-.88.47-1.55,0-.58-.12-1.05-.34-1.4-.23-.35-.53-.62-.91-.81s-.8-.32-1.26-.38c-.47-.06-.94-.09-1.41-.09h-2.71v5.38Z"></path>
  <path class="cls-2" d="m250.14,31.56h-5.37v14.47h-1.93v-14.47h-5.37v-1.79h12.68v1.79Z"></path>
  <path class="cls-2" d="m260.84,39.03l-6.06-9.26h2.46l4.57,7.35,4.71-7.35h2.32l-6.06,9.26v7h-1.93v-7Z"></path>
  <path class="cls-2" d="m293.91,32.64c-.32-.52-.75-.9-1.29-1.14-.54-.24-1.09-.36-1.68-.36-.43,0-.85.05-1.26.16-.41.11-.78.27-1.11.48-.33.21-.59.5-.79.85s-.3.77-.3,1.24c0,.37.06.69.17.98.12.28.3.54.56.77s.61.44,1.06.64.99.4,1.63.6c.63.2,1.24.41,1.83.64.59.23,1.11.52,1.56.87.45.35.81.79,1.08,1.32.27.53.4,1.19.4,1.99s-.16,1.52-.48,2.11c-.32.6-.75,1.09-1.27,1.48-.53.39-1.14.68-1.83.87-.69.19-1.4.29-2.14.29-.47,0-.95-.04-1.42-.13-.48-.08-.93-.21-1.37-.39s-.85-.41-1.23-.69-.71-.63-.99-1.04l1.65-1.36c.35.6.84,1.05,1.47,1.36.63.31,1.29.46,2,.46.41,0,.83-.06,1.25-.18.42-.12.8-.3,1.14-.54s.61-.53.83-.88c.21-.35.32-.76.32-1.22,0-.5-.08-.92-.25-1.23-.17-.31-.43-.59-.78-.82-.35-.23-.8-.44-1.33-.62-.54-.18-1.16-.4-1.88-.64-.58-.18-1.12-.39-1.61-.63s-.92-.53-1.27-.87c-.36-.34-.64-.76-.85-1.24-.21-.48-.31-1.06-.31-1.73,0-.78.15-1.46.46-2.04.31-.58.72-1.07,1.24-1.46s1.11-.69,1.77-.88c.66-.2,1.35-.3,2.07-.3.92,0,1.76.14,2.51.42s1.44.78,2.03,1.48l-1.58,1.38Z"></path>
  <path class="cls-2" d="m311.12,46.45c-1.24,0-2.38-.21-3.41-.64-1.03-.43-1.93-1.02-2.69-1.78s-1.35-1.66-1.77-2.71-.63-2.19-.63-3.41.21-2.36.63-3.41,1.01-1.95,1.77-2.71,1.65-1.35,2.69-1.78c1.03-.43,2.17-.64,3.41-.64s2.38.21,3.41.64c1.03.43,1.93,1.02,2.69,1.78s1.35,1.66,1.77,2.71.63,2.19.63,3.41-.21,2.36-.63,3.41-1.01,1.95-1.77,2.71-1.65,1.35-2.69,1.78c-1.03.43-2.17.64-3.41.64Zm0-1.79c.95,0,1.82-.18,2.61-.53.79-.35,1.47-.83,2.03-1.45.57-.61,1.01-1.33,1.32-2.15.31-.82.47-1.7.47-2.63s-.16-1.81-.47-2.63-.75-1.54-1.32-2.15-1.24-1.09-2.03-1.45c-.79-.35-1.66-.53-2.61-.53s-1.82.18-2.61.53c-.79.35-1.47.83-2.03,1.45s-1.01,1.33-1.32,2.15-.47,1.7-.47,2.63.16,1.81.47,2.63c.31.82.75,1.54,1.32,2.15.57.61,1.24,1.09,2.03,1.45.79.35,1.66.53,2.61.53Z"></path>
  <path class="cls-2" d="m327.29,29.77h1.93v14.47h7.44v1.79h-9.37v-16.26Z"></path>
  <path class="cls-2" d="m355.53,39.83c0,.89-.11,1.73-.33,2.53-.22.8-.57,1.5-1.06,2.1-.48.61-1.11,1.09-1.89,1.45-.78.36-1.73.54-2.85.54s-2.07-.18-2.85-.54c-.78-.36-1.41-.84-1.89-1.45-.48-.6-.83-1.31-1.06-2.1s-.33-1.64-.33-2.53v-10.06h1.93v9.78c0,.66.07,1.29.21,1.91s.37,1.16.69,1.63.75.85,1.29,1.14c.54.28,1.21.42,2.02.42s1.49-.14,2.02-.42c.54-.28.96-.66,1.29-1.14s.55-1.02.69-1.63.21-1.25.21-1.91v-9.78h1.93v10.06Z"></path>
  <path class="cls-2" d="m375.01,31.56h-5.37v14.47h-1.93v-14.47h-5.37v-1.79h12.68v1.79Z"></path>
  <path class="cls-2" d="m381.88,29.77h1.93v16.26h-1.93v-16.26Z"></path>
  <path class="cls-2" d="m399.98,46.45c-1.24,0-2.38-.21-3.41-.64-1.03-.43-1.93-1.02-2.69-1.78s-1.35-1.66-1.77-2.71-.63-2.19-.63-3.41.21-2.36.63-3.41,1.01-1.95,1.77-2.71,1.65-1.35,2.69-1.78c1.03-.43,2.17-.64,3.41-.64s2.38.21,3.41.64c1.03.43,1.93,1.02,2.69,1.78s1.35,1.66,1.77,2.71.63,2.19.63,3.41-.21,2.36-.63,3.41-1.01,1.95-1.77,2.71-1.65,1.35-2.69,1.78c-1.03.43-2.17.64-3.41.64Zm0-1.79c.95,0,1.82-.18,2.61-.53.79-.35,1.47-.83,2.03-1.45.57-.61,1.01-1.33,1.32-2.15.31-.82.47-1.7.47-2.63s-.16-1.81-.47-2.63-.75-1.54-1.32-2.15-1.24-1.09-2.03-1.45c-.79-.35-1.66-.53-2.61-.53s-1.82.18-2.61.53c-.79.35-1.47.83-2.03,1.45s-1.01,1.33-1.32,2.15-.47,1.7-.47,2.63.16,1.81.47,2.63c.31.82.75,1.54,1.32,2.15.57.61,1.24,1.09,2.03,1.45.79.35,1.66.53,2.61.53Z"></path>
  <path class="cls-2" d="m416.14,29.77h2.43l9.42,13.5h.05v-13.5h1.93v16.26h-2.43l-9.42-13.5h-.05v13.5h-1.93v-16.26Z"></path>
  <path class="cls-2" d="m446.3,32.64c-.32-.52-.75-.9-1.29-1.14-.54-.24-1.09-.36-1.68-.36-.43,0-.85.05-1.26.16-.41.11-.78.27-1.11.48-.33.21-.59.5-.79.85s-.3.77-.3,1.24c0,.37.06.69.17.98.12.28.3.54.56.77s.61.44,1.06.64.99.4,1.63.6c.63.2,1.24.41,1.83.64.59.23,1.11.52,1.56.87.45.35.81.79,1.08,1.32.27.53.4,1.19.4,1.99s-.16,1.52-.48,2.11c-.32.6-.75,1.09-1.27,1.48-.53.39-1.14.68-1.83.87-.69.19-1.4.29-2.14.29-.47,0-.95-.04-1.42-.13-.48-.08-.93-.21-1.37-.39s-.85-.41-1.23-.69c-.38-.28-.71-.63-.99-1.04l1.65-1.36c.35.6.84,1.05,1.47,1.36.63.31,1.29.46,2,.46.41,0,.83-.06,1.25-.18.42-.12.8-.3,1.14-.54s.61-.53.83-.88c.21-.35.32-.76.32-1.22,0-.5-.08-.92-.25-1.23-.17-.31-.43-.59-.78-.82-.35-.23-.8-.44-1.33-.62-.54-.18-1.16-.4-1.88-.64-.58-.18-1.12-.39-1.61-.63s-.92-.53-1.27-.87c-.36-.34-.64-.76-.85-1.24-.21-.48-.31-1.06-.31-1.73,0-.78.15-1.46.46-2.04.31-.58.72-1.07,1.24-1.46s1.11-.69,1.77-.88c.66-.2,1.35-.3,2.07-.3.92,0,1.76.14,2.51.42s1.44.78,2.03,1.48l-1.58,1.38Z"></path>
  <path class="cls-4" d="m26.19,43.94h-.39c0-.41.05-.79.17-1.12.17-.5.36-1.18.58-2.06h11.76l-5.71,6.08c3.5.79,5.25,2.83,5.25,6.14,0,1.97-.72,3.54-2.15,4.7-1.42,1.17-3.06,1.76-4.92,1.76-1.36,0-2.62-.38-3.76-1.12-1.12-.74-1.83-1.89-2.15-3.46h.6c.46,1.13,1.19,1.97,2.19,2.51,1.01.55,2.03.82,3.08.82,1.5,0,2.78-.43,3.82-1.29,1.05-.86,1.57-2.14,1.57-3.83s-.51-3-1.53-3.95c-1.05-.92-2.28-1.38-3.7-1.38-.28,0-.62.02-1.03.06l5.46-5.82h-5.11c-1.19,0-2.07.12-2.65.37-.57.25-1.03.79-1.39,1.61Zm.77-5.65h13.69l-1.2,1.25h-12.69l.21-1.25Zm10.17,19.75c.62-.41,1.15-1.15,1.59-2.21.41-1.02.62-1.98.62-2.86,0-1.82-.65-3.49-1.94-5,2.38,1.18,3.58,2.89,3.58,5.11,0,1.35-.39,2.45-1.18,3.31-.77.85-1.66,1.4-2.67,1.65Z"></path>
  <text class="cls-1" transform="translate(451 33.74)">
    <tspan x="0" y="0">®</tspan>
  </text>
</svg>
